PathFileType	4	(X/Y/Z)	path1_04_0-548.trc
DataRate	CameraRate	NumFrames	NumMarkers	Units	OrigDataRate	OrigDataStartFrame	OrigNumFrames
30	30	9	22	m	30	342	548
Frame#	Time	Hip			RHip			RKnee			RAnkle			RBigToe			RSmallToe			RHeel			LHip			LKnee			LAnkle			LBigToe			LSmallToe			LHeel			Neck			Head			Nose			RShoulder			RElbow			RWrist			LShoulder			LElbow			LWrist		
		X1	Y1	Z1	X2	Y2	Z2	X3	Y3	Z3	X4	Y4	Z4	X5	Y5	Z5	X6	Y6	Z6	X7	Y7	Z7	X8	Y8	Z8	X9	Y9	Z9	X10	Y10	Z10	X11	Y11	Z11	X12	Y12	Z12	X13	Y13	Z13	X14	Y14	Z14	X15	Y15	Z15	X16	Y16	Z16	X17	Y17	Z17	X18	Y18	Z18	X19	Y19	Z19	X20	Y20	Z20	X21	Y21	Z21	X22	Y22	Z22
343	11.433333333333334	2.698624050112481	0.834878901260263	0.4416056239214196	2.703699050350993	0.8134069151649826	0.3581443669975667	2.7101813296262294	0.4575074792329451	0.3855552752725546	2.7293306496760468	0.11055777143808296	0.37424164889124517	2.573354018033577	0.030204147335510818	0.3535324754684017	2.6061320179063303	0.027338951196847573	0.29692884594836033	2.7974878999378876	0.032934200191624546	0.40080691782942174	2.704004399587053	0.8128040444684539	0.5247262260553933	2.7169290641030956	0.43458887465881985	0.5150248882445242	2.7679563837397354	0.09199152629044778	0.540042070937666	2.596204976901618	0.007026064486151007	0.5837071737062973	2.634824799596246	0.011222106434794174	0.6225029934584875	2.798761699816634	0.035704903232845454	0.5156464755609059	2.6642311491592854	1.4591022437088932	0.45412638548617534	2.588778667737876	1.703506756206483	0.4318786013674735	2.5235188746784303	1.5941685078603873	0.4365529200173904	2.7003520157582606	1.3656535506049414	0.2850226128474556	2.711342717490551	1.0701126804665988	0.21474115590328505	2.6780688773775387	0.8353318718133989	0.20007408253110373	2.6809058143594875	1.3499604502821536	0.6045041892241676	2.744029018951375	1.0612304608410745	0.6312414183351581	2.7218857186357726	0.835964564628095	0.6721930105633364
344	11.466666666666669	2.696461267063902	0.8343809702619688	0.4389985981024891	2.702538547518436	0.8128104001503079	0.3545637399654682	2.702704610608088	0.4583809547177998	0.37669919267565793	2.7355943641117437	0.10803562056075143	0.3775464683199401	2.5725820062194305	0.02966325947315448	0.35403411614257263	2.607198013389872	0.02713012708613254	0.29740763485562965	2.7986109383899356	0.03425354093740704	0.4016521387077735	2.701459650024372	0.8129883794835889	0.5215062476495878	2.706689769670818	0.43749380167290836	0.5161407895625917	2.769001186491313	0.0942162888255264	0.5444563787841163	2.5991429656350236	0.008078125908876209	0.5868603918492487	2.634061430467685	0.014656924340770486	0.6188337437342165	2.799522044976583	0.03788061698990269	0.5166453352682691	2.6615397717075764	1.4580345464192275	0.4495899844178692	2.5878178338013877	1.7054346531612279	0.4257404246427801	2.52036085321908	1.5930851425534283	0.4338131734443505	2.6978929458269243	1.3635911113921095	0.2819422277746331	2.704877016061166	1.0668311033665892	0.21209105395827585	2.6701887805008684	0.8320893111212789	0.19873552866663274	2.675831591718995	1.34783755989668	0.6047460443736795	2.7423201810708524	1.062008360257856	0.6291817799567191	2.7229967742098844	0.8351786485317001	0.6664850131100003
345	11.5	2.694358175381179	0.8336835592304652	0.4360275656322038	2.701786125229101	0.8116362498064894	0.3507622925958952	2.694528517991293	0.458431973182007	0.36628888492580963	2.744004741226249	0.10502618010472294	0.3819875283356917	2.572549318929993	0.029885108723644513	0.3544884211341022	2.608525296567675	0.026792283556901296	0.29766627703973897	2.801014571788166	0.035396926076420046	0.4030688585480582	2.697630965542411	0.81285772537501	0.518060732312229	2.689325315885003	0.4428013191275961	0.5183649076426748	2.7673405848486152	0.09868978455221807	0.5475656261789736	2.6013886512652027	0.00957616994204012	0.5882640539813422	2.633465218584312	0.017345168513014073	0.6159037474676139	2.7988855541338693	0.04131223018805908	0.5181827005407419	2.658079908764369	1.4566902797973103	0.44486876797219094	2.586880035784702	1.7078059054806358	0.4186071811018383	2.516342943320302	1.5915749222199431	0.4302743191114574	2.6952110899765476	1.361099217453137	0.2782475700233109	2.6969928407822263	1.0633255294535984	0.20917307324611886	2.6601457671643938	0.8287778670880682	0.19748644261030196	2.6713386700338324	1.3456294044615653	0.6030834332025088	2.7403960521288018	1.0628146220323984	0.6269530826112829	2.724424501416085	0.8342891717206075	0.6602943826488819
346	11.533333333333331	2.6922822036895013	0.8326337957983031	0.4327642402414093	2.701167114218147	0.8096293728573897	0.3470032826726783	2.6873135346481423	0.4570004725179124	0.3561190307949953	2.752994393393365	0.10217234046562118	0.3864889858743213	2.573328426614882	0.03044723796804647	0.3542459272745843	2.61013052321984	0.026201376758238852	0.2976812570953971	2.8043291922300897	0.03603815010823933	0.40470505155628633	2.6923459835162182	0.8120697628932383	0.5145764614742822	2.6641621471424437	0.45082605950339977	0.5214058164850095	2.761937153987624	0.10522604460136929	0.549091331486533	2.600983873907473	0.01149669294036395	0.5877249529385198	2.631706762041548	0.019129158785172972	0.6144191738449525	2.7953492058580327	0.0460910682378599	0.5201202398978029	2.65361059015498	1.4552028280219687	0.44011114881163177	2.585891630185687	1.7100395301192457	0.4109516073735315	2.511264096816475	1.5898158665547062	0.42570837164793685	2.692016722766272	1.358282553556548	0.2739847531078575	2.6875320886030534	1.0596734944589365	0.206135676319196	2.6479764499299696	0.8254585218019671	0.196459604792347	2.6686461515857403	1.3438452823572704	0.5982547939309714	2.7382495740360158	1.0632622966266303	0.6240350232652483	2.7257616845478685	0.833262591453719	0.6539549204488266
347	11.566666666666666	2.6899064465734703	0.8312387602404873	0.42937848401601164	2.7002221521663023	0.8066926361070963	0.3434537923263357	2.6822015940902766	0.4539945498238231	0.34749288266043116	2.760596915686495	0.10004789514361745	0.38961488415410017	2.5749211068079774	0.03065752913246669	0.35326601204563673	2.6119618889610026	0.025305772767008336	0.2975434662956329	2.8072347940250566	0.03621776448790325	0.40569542481108734	2.685251314189194	0.8104389051619771	0.511118103438888	2.6325313561156394	0.46112345983967845	0.524343259271387	2.751553517502238	0.11325127015321053	0.5489442173063659	2.595688477146756	0.01385578183605956	0.5855558580429937	2.626111731087299	0.020842456032176743	0.6141946753847549	2.7871385508662225	0.052004047243492085	0.5221472581595884	2.647988963238964	1.45374843368078	0.4354668464896286	2.584452532278134	1.7108286896494949	0.40374976749361635	2.504996253419161	1.5880780177936242	0.4201726863771603	2.6879843970427353	1.3552797346700736	0.269209826172793	2.6764109259626037	1.0560659839521787	0.2031521939559034	2.6337971723228484	0.8223287936944396	0.19565489829125116	2.6682565185772074	1.3429519575634623	0.5898662361479111	2.7358765534475973	1.063149634589078	0.6198450904421718	2.726501189317134	0.8322130172938457	0.647774312298747
348	11.6	2.68667623653906	0.82972622133188	0.42607835920083836	2.6984452870803732	0.8030627666114176	0.3401649203581949	2.6793379146178498	0.45008113188427207	0.34082069238531987	2.765475632733999	0.0989046855969358	0.3904751672456769	2.577203278840001	0.03009608036071281	0.3520228972784547	2.6141021315840947	0.024186913219401692	0.2975236458869348	2.8081094045107333	0.036330446657975725	0.4050265314263741	2.675991957840986	0.8081514700096736	0.5076882252493128	2.5978557609083524	0.4724673873581395	0.5261521492567569	2.734982049365798	0.12168491508704977	0.5472812046606627	2.5832226808921437	0.01674757803951096	0.5823143553513677	2.6134551642034114	0.023546280515931647	0.6146367190679156	2.7726972234918583	0.058284929715217745	0.523808835862229	2.64121172172279	1.4524926814623185	0.4310710757241278	2.582034596322701	1.7090938556286797	0.3982623902827777	2.4975404006637874	1.586591174977314	0.41409427826686634	2.6827649822906086	1.3522903285266423	0.2639079113436696	2.663692812379212	1.0527856975203491	0.20035046152017633	2.617672784871197	0.8197306326408911	0.19493866767837487	2.6696764517716636	1.3432155654141107	0.5786148106102575	2.733268544279786	1.0626224422229407	0.614072381796993	2.7260910658129918	0.8313279021428358	0.6419613986769299
349	11.633333333333333	2.6821126171636953	0.8284573900498139	0.4230423328969173	2.695367003417387	0.7993636767625839	0.3371463092826241	2.678259944600581	0.44619352118472966	0.3360429468745882	2.7673409053248155	0.09863183044188131	0.38925131857482126	2.579759927699686	0.028843817879826372	0.351051515274124	2.6165614685419816	0.023076696501739477	0.2979928473247686	2.806084160677296	0.036668528409834866	0.40221745399501185	2.6646518760423357	0.8057940254238126	0.5043337153871551	2.5644260184821923	0.4833795091140256	0.5264094763139686	2.711361336990638	0.1290943400192342	0.5445245017885194	2.561543672370758	0.020348445901850455	0.5785430349392671	2.590918116658537	0.027880702052720863	0.6152564144899517	2.7513765253098117	0.06362075798805715	0.5247847602424456	2.633408773813013	1.4515296421406203	0.42696079870017956	2.5780321338148906	1.7048697473675405	0.395500855118339	2.489000705308627	1.5853731200627645	0.40811711667552786	2.6760374324017957	1.3495843121664894	0.2580542099422446	2.649515462694796	1.0500672786751335	0.19778324725835258	2.599511699746088	0.8179767318892519	0.19413017129072113	2.671541185353996	1.3445632406626677	0.566301642861168	2.730494662744466	1.0620368852035365	0.6066675912021668	2.72400013238256	0.8307571064177793	0.6366298870224163
350	11.666666666666666	2.6760854579027047	0.8277292272145504	0.42041022514091186	2.690699636479062	0.7963927934769962	0.3344796257715521	2.6782260606983836	0.44314048413423623	0.3330617859131292	2.7667693640633333	0.09881949202977881	0.38699239198541147	2.5820709501096077	0.027313410756186214	0.3508032857817604	2.619191076095815	0.022224808323308677	0.29925451361082495	2.801674793161789	0.03707131698793202	0.3978044941551136	2.6519312952379837	0.8041101606766876	0.5012210911555501	2.5357209503505875	0.4926453455111388	0.5252995279505083	2.6805015156736918	0.13425785778323718	0.5413204209712659	2.5295052232500215	0.0248440734453485	0.5748015028437666	2.5570913100686816	0.03380702837961609	0.6158512185082243	2.7235404186620946	0.06673830281109311	0.5251869810022878	2.624786799384089	1.4508186079241814	0.4230872299228463	2.5714252617619078	1.6992236301777537	0.39542008303068704	2.4794914092729208	1.5841560305134734	0.4026801481625575	2.6675834791992044	1.3474324881632775	0.25181785399580514	2.6340259156814785	1.0480015879522977	0.1954965959485477	2.579045251946929	0.8171817365071251	0.19316048836826297	2.672138156778517	1.3466330263523734	0.5551853264360216	2.727640785082116	1.0618212566479388	0.5980331937102307	2.719810843743678	0.830563463653617	0.6319288186170573
351	11.7	2.6688369384348274	0.827577044040302	0.4183304189648168	2.684503473057824	0.7946975831291562	0.332389068990985	2.6782487782078914	0.4416782850141521	0.33189795404788186	2.764804103344757	0.0989361026538725	0.3849656077518817	2.5839430773175507	0.025909429836444026	0.35163431970054576	2.6218769273049385	0.02171857477320791	0.301396137622629	2.796549708813419	0.037068469481882985	0.39307250887486817	2.6387883866212394	0.8036057153873176	0.4986747276477171	2.5134240425126904	0.49953666009342446	0.523202073764512	2.643051250929287	0.13678161811012063	0.5383853258924933	2.4876435592065818	0.030271352809344457	0.5717818560523793	2.512921365314099	0.040594707781901274	0.6165026741015708	2.689704152502128	0.0672166933053148	0.525482918170133	2.6155140357438373	1.4501722322543023	0.41948023756608455	2.560814558009862	1.6936400178998936	0.39638148769222686	2.4690164725298445	1.5825143543823956	0.39764387601399387	2.657349782961176	1.3459719849096037	0.2456941445880033	2.6174027348941498	1.0465334601505953	0.1936314207602673	2.555945053302549	0.8172926528693402	0.19215061591096144	2.670192720149182	1.3489645936985812	0.5467670114250592	2.724509544017498	1.0623874268823854	0.5893786725143468	2.7133291441709115	0.830699563110809	0.628111247707387
